<?xml version="1.0" encoding="UTF-8" standalone="no"?>
<!-- Created with Inkscape (http://www.inkscape.org/) -->

<svg
   width="48"
   height="48"
   viewBox="0 0 12.7 12.7"
   version="1.1"
   id="svg1"
   xmlns="http://www.w3.org/2000/svg"
   xmlns:svg="http://www.w3.org/2000/svg">
  <defs
     id="defs1" />
  <g
     id="layer1">
    <g
       id="text5"
       style="font-size:1.02063px;font-family:GI_zh-CN;-inkscape-font-specification:'GI_zh-CN, Normal';stroke-width:0.255159"
       transform="scale(1.0336134,0.96747971)"
       aria-label="the&#10;Teyvat&#10;Impact&#10;Worldbuilding">
      <path
         style="font-size:1.05221px;font-family:'Genshin Impact DRIP FONT';-inkscape-font-specification:'Genshin Impact DRIP FONT, Normal';text-align:center;text-anchor:middle"
         d="m 5.6564227,3.6950206 q 0.00411,0 0.013872,0.092479 0.00154,0.00514 0.013872,0.097103 l -0.00257,0.00154 h -0.041102 q -0.00411,0 -0.017982,-0.056515 -0.016441,-0.048295 -0.041102,-0.063194 -0.015413,-0.011303 -0.05035,-0.011303 H 5.3918289 v 0.5004163 q 0,0.087855 0.03545,0.1058375 0.018496,0.012331 0.040588,0.012331 h 0.051891 q 0.00308,5.137e-4 0.00308,0.00308 v 0.049322 q 0,0.00257 -0.00308,0.00257 H 5.109253 q -0.00257,0 -0.00257,-0.00257 v -0.049322 q 5.138e-4,-0.00308 0.00257,-0.00308 h 0.051891 q 0.055488,0 0.071928,-0.061653 0.00411,-0.03134 0.00411,-0.056515 V 3.7551322 H 5.0979499 q -0.063194,0 -0.082718,0.052405 -0.012844,0.035964 -0.024147,0.077066 l -0.00257,0.00154 H 4.947414 l -0.00257,-0.00154 Q 4.96745,3.7181403 4.97156,3.6950205 Z m 0.1191957,-0.00308 h 0.3421737 q 0.00257,5.138e-4 0.00257,0.00257 v 0.039047 q 0,0.00257 -0.042643,0.00822 -0.036992,0.011817 -0.051891,0.040588 -0.00668,0.022092 -0.00668,0.049836 v 0.172625 H 6.3541283 V 3.8614835 q 0,-0.011303 0.00154,-0.026202 0,-0.059598 -0.032368,-0.080663 -0.017468,-0.011303 -0.061139,-0.019523 v -0.040588 q 5.138e-4,-0.00257 0.00308,-0.00257 h 0.3416599 q 0.00308,5.138e-4 0.00308,0.00257 v 0.039047 q 0,0.00257 -0.043157,0.00822 -0.036992,0.011817 -0.051377,0.040588 -0.00719,0.022092 -0.00719,0.049836 V 4.259145 q 0,0.092479 0.033395,0.1058375 0.013872,0.010276 0.061139,0.01901 0.00719,0 0.00719,0.00308 v 0.039047 q 0,0.00257 -0.00308,0.00257 h -0.339087 q -0.00257,0 -0.00257,-0.00257 v -0.039047 q 0.00462,-0.00411 0.052919,-0.016955 0.037506,-0.021579 0.037506,-0.083231 -0.00154,-0.018496 -0.00154,-0.027744 V 4.0813789 H 6.0191474 V 4.28843 q 0,0.067304 0.041616,0.083232 0.015927,0.00822 0.059598,0.013872 v 0.040588 q 0,0.00257 -0.00257,0.00257 h -0.342173 q -0.00257,0 -0.00257,-0.00257 V 4.387075 q 0,-0.00257 0.041616,-0.011303 0.05035,-0.01901 0.05035,-0.075011 0,-0.013872 0.00103,-0.013872 -0.00103,-0.018496 -0.00103,-0.027744 V 3.8614835 q 0,-0.011303 0.00103,-0.026202 0,-0.059598 -0.031854,-0.080663 -0.017982,-0.011303 -0.061139,-0.019523 v -0.040588 q 5.138e-4,-0.00257 0.00257,-0.00257 z m 0.9463724,0.00103 h 0.6997607 q 0.00257,5.138e-4 0.00257,0.00308 V 3.867135 q 0,0.00308 -0.00257,0.00308 H 7.3873286 L 7.3498231,3.8049683 Q 7.3174553,3.7582148 7.2655641,3.7582148 H 7.0775227 q -0.038533,0 -0.048295,0.013872 -0.011303,0.019524 -0.011303,0.053946 v 0.4701035 q 0,0.054974 0.026203,0.064736 0.017982,0.00308 0.033395,0.00308 h 0.1880414 q 0.069873,0 0.1078926,-0.089911 0.012331,-0.022092 0.013872,-0.022092 h 0.034423 q 0.00257,0 0.00257,0.00257 V 4.42612 q 0,0.00257 -0.00257,0.00257 H 6.7219908 q -0.00257,0 -0.00257,-0.00257 V 4.380394 q 5.138e-4,-0.00308 0.00257,-0.00308 h 0.06936 q 0.039561,0 0.060625,-0.044185 0.00976,-0.022606 0.00976,-0.056515 V 3.8450427 q 0,-0.079635 -0.052405,-0.098131 -0.012331,-0.00257 -0.017982,-0.00257 h -0.06936 q -0.00257,0 -0.00257,-0.00308 v -0.045212 q 5.138e-4,-0.00308 0.00257,-0.00308 z m 0.4814066,0.2599698 q 0.051891,0.065249 0.1006998,0.088369 0.037505,0.021579 0.037505,0.022606 v 0.00103 q -0.05857,0.017982 -0.1227921,0.075011 0,0.00154 -0.019523,0.01901 h -0.00154 q -0.070901,-0.076039 -0.1176544,-0.094021 -0.014386,-0.00668 -0.017982,-0.00668 v -0.00411 q 0.010276,0 0.07758,-0.041616 0.024147,-0.013872 0.063708,-0.059598 z"
         id="path10" />
      <path
         style="font-size:1.40295px;font-family:'Genshin Impact DRIP FONT';-inkscape-font-specification:'Genshin Impact DRIP FONT, Normal';text-align:center;text-anchor:middle"
         d="m 3.8066578,5.0860624 q 0.00548,0 0.018496,0.1233061 0.00206,0.00685 0.018496,0.1294715 l -0.00343,0.00206 h -0.054803 q -0.00548,0 -0.023976,-0.075354 Q 3.7395198,5.201153 3.7066378,5.181287 3.6860868,5.166216 3.6395048,5.166216 H 3.4538652 v 0.6672233 q 0,0.1171409 0.047267,0.1411171 0.024661,0.016441 0.054118,0.016441 h 0.069188 q 0.00411,6.85e-4 0.00411,0.00411 v 0.065763 q 0,0.00343 -0.00411,0.00343 H 3.0770964 q -0.00343,0 -0.00343,-0.00343 v -0.065763 q 6.85e-4,-0.00411 0.00343,-0.00411 h 0.069188 q 0.073984,0 0.095905,-0.082204 0.00548,-0.041787 0.00548,-0.075354 V 5.1662114 H 3.0620256 q -0.084259,0 -0.1102905,0.069873 -0.017126,0.047952 -0.032197,0.1027551 l -0.00343,0.00206 h -0.054803 l -0.00343,-0.00206 q 0.030142,-0.2219511 0.035622,-0.2527776 z m 0.1623531,-0.00274 h 0.9330165 q 0.00343,6.85e-4 0.00343,0.00411 v 0.2281164 q 0,0.00411 -0.00343,0.00411 H 4.8561301 L 4.8061226,5.2326597 Q 4.7629655,5.1703216 4.693777,5.1703216 H 4.4430545 q -0.051378,0 -0.064393,0.018496 -0.015071,0.026031 -0.015071,0.071929 v 0.6268063 q 0,0.073299 0.034937,0.086314 0.023976,0.00411 0.044527,0.00411 H 4.693777 q 0.093165,0 0.1438572,-0.119881 0.016441,-0.029456 0.018496,-0.029456 h 0.045897 q 0.00343,0 0.00343,0.00343 v 0.2288015 q 0,0.00343 -0.00343,0.00343 H 3.9690109 q -0.00343,0 -0.00343,-0.00343 V 5.999898 q 6.85e-4,-0.00411 0.00343,-0.00411 h 0.09248 q 0.052748,0 0.080834,-0.058913 0.013016,-0.030142 0.013016,-0.075354 V 5.2860924 q 0,-0.1061803 -0.069874,-0.1308416 -0.016441,-0.00343 -0.023976,-0.00343 h -0.09248 q -0.00343,0 -0.00343,-0.00411 v -0.060283 q 6.85e-4,-0.00411 0.00343,-0.00411 z m 0.641877,0.3466273 q 0.069189,0.086999 0.1342667,0.1178258 0.050007,0.028772 0.050007,0.030142 v 0.00137 q -0.078094,0.023976 -0.1637232,0.100015 0,0.00206 -0.026031,0.025346 h -0.00206 Q 4.5088178,5.6032632 4.4464797,5.579287 4.4272987,5.570377 4.4225037,5.570377 v -0.00548 q 0.013701,0 0.1034402,-0.055488 0.032197,-0.018496 0.084944,-0.079464 z M 5.0362942,5.0826372 h 0.4747287 q 0.00343,6.851e-4 0.00343,0.00343 v 0.060283 q 0,0.00411 -0.00343,0.00411 h -0.029457 q -0.067818,0 -0.067818,0.052748 0,0.016441 0.064393,0.09933 0.1705735,0.2370218 0.1829042,0.2507225 0.1904395,-0.3068953 0.1904395,-0.3226511 0.00411,-0.013016 0.00411,-0.019866 0,-0.036307 -0.042472,-0.053433 -0.021921,-0.00685 -0.049322,-0.00685 h -0.00548 q -0.00343,0 -0.00343,-0.00411 v -0.060283 q 0,-0.00343 0.00343,-0.00343 H 6.106318 q 0.00343,6.851e-4 0.00343,0.00343 v 0.060283 q 0,0.00548 -0.038362,0.01096 -0.047952,0.013701 -0.093165,0.069873 -0.043157,0.050008 -0.2527776,0.379509 -0.029457,0.059598 -0.029457,0.1075504 0,0.048637 0.00206,0.1870143 0,0.039732 0.021921,0.067818 0.028086,0.027401 0.067818,0.027401 h 0.049322 q 0.00343,6.851e-4 0.00343,0.00343 v 0.060968 q 0,0.00343 -0.00343,0.00343 H 5.3370242 q -0.00343,0 -0.00343,-0.00343 V 5.999898 q 0,-0.00343 0.00343,-0.00343 h 0.063708 q 0.050008,0 0.082889,-0.054803 0.00822,0 0.010961,-0.1541327 0,-0.1335817 -0.056858,-0.1979749 Q 5.3589453,5.4799571 5.2603003,5.3463754 5.173986,5.2264944 5.1479547,5.1997781 5.0917819,5.1518257 5.0349241,5.1518257 l -0.00206,-0.00343 v -0.062338 q 6.85e-4,-0.00343 0.00343,-0.00343 z m 1.1899044,-0.00274 h 0.5267913 q 0.00343,6.85e-4 0.00343,0.00343 v 0.060968 q 0,0.00343 -0.00548,0.00343 -0.1061803,0 -0.1308415,0.031511 -0.014386,0.023291 -0.014386,0.042472 0,0.038362 0.09385,0.2425021 0.1424871,0.3274463 0.1582429,0.3534776 l 0.00891,0.00891 q 0.017126,0 0.040417,-0.082204 Q 7.0914065,5.26624 7.0968868,5.245689 q 0.00206,-0.016441 0.00206,-0.018496 0,-0.062338 -0.088369,-0.077409 -0.042472,0 -0.042472,-0.00548 V 5.083336 q 6.851e-4,-0.00343 0.00343,-0.00343 h 0.3699185 q 0.00411,6.85e-4 0.00411,0.00343 v 0.060968 q 0,0.00274 -0.028086,0.00754 Q 7.2414193,5.1853924 7.196207,5.2655414 7.1208533,5.4107686 6.9811063,5.7567109 6.8660205,6.038945 6.8482096,6.0642912 H 6.7618953 Q 6.7516198,6.0547008 6.715998,5.9670164 L 6.4070476,5.2860924 Q 6.3529299,5.1826522 6.2837415,5.1607311 6.2652455,5.1552508 6.2227734,5.1463454 v -0.063023 q 6.851e-4,-0.00343 0.00343,-0.00343 z m 1.5981851,0.00754 h 0.2171558 q 0.010275,0 0.050007,0.121936 0.067818,0.1815341 0.2486674,0.6843492 0.035622,0.071929 0.094535,0.094535 0.017811,0.00617 0.023976,0.00617 h 0.019866 q 0.00411,0 0.00411,0.00343 v 0.062338 q 0,0.00411 -0.00411,0.00411 H 8.0072878 q -0.00411,0 -0.00411,-0.00411 v -0.062338 q 6.85e-4,-0.00343 0.00411,-0.00343 h 0.078094 q 0.050008,0 0.050008,-0.032197 h 0.00206 q 0,-0.024661 -0.1123456,-0.3295014 Q 7.8887769,5.2758169 7.8887769,5.2641713 h -0.00206 q -0.069873,0.2061953 -0.1445423,0.4391069 -0.073299,0.1931797 -0.078094,0.2726436 0.012331,0.018496 0.076039,0.018496 h 0.064393 q 0.00411,0 0.00411,0.00343 v 0.062338 q 0,0.00411 -0.00411,0.00411 H 7.4195284 q -0.00411,0 -0.00411,-0.00411 v -0.062338 q 6.851e-4,-0.00343 0.00411,-0.00343 h 0.050008 q 0.030827,0 0.071929,-0.054803 0.033567,-0.054118 0.072614,-0.1863293 0.1924946,-0.5678933 0.2048252,-0.6076253 0.00343,-0.019866 0.00343,-0.036307 l -0.00137,-0.019866 z m 0.070558,0.5233661 h 0.00206 q 0.060283,0.067133 0.1123456,0.086314 v 0.00411 q -0.042472,0.00548 -0.1102905,0.069873 0,0.00343 -0.00617,0.00617 -0.066448,-0.070558 -0.1082354,-0.082204 -0.00411,0 -0.00411,-0.00411 v -0.00206 q 0.053433,-0.013016 0.1144007,-0.078094 z M 9.4869614,5.0860624 q 0.00548,0 0.018496,0.1233061 0.00206,0.00685 0.018496,0.1294715 l -0.00343,0.00206 h -0.054803 q -0.00548,0 -0.023976,-0.075354 Q 9.419828,5.2011481 9.3869464,5.1812821 9.3663954,5.1662114 9.319813,5.1662114 H 9.1341688 v 0.6672233 q 0,0.1171409 0.047267,0.1411171 0.024661,0.016441 0.054118,0.016441 h 0.069188 q 0.00411,6.85e-4 0.00411,0.00411 v 0.065763 q 0,0.00343 -0.00411,0.00343 H 8.7574 q -0.00343,0 -0.00343,-0.00343 v -0.065763 q 6.85e-4,-0.00411 0.00343,-0.00411 h 0.069188 q 0.073984,0 0.095905,-0.082204 0.00548,-0.041787 0.00548,-0.075354 V 5.1662114 H 8.7423292 q -0.084259,0 -0.1102905,0.069873 -0.017126,0.047952 -0.032197,0.1027551 l -0.00343,0.00206 H 8.5416142 L 8.538189,5.33884 Q 8.568331,5.1168889 8.573811,5.0860624 Z"
         id="path11" />
      <path
         style="font-size:1.40295px;font-family:'Genshin Impact DRIP FONT';-inkscape-font-specification:'Genshin Impact DRIP FONT, Normal';text-align:center;text-anchor:middle"
         d="m 3.249725,6.6376649 h 0.00343 v 0.00206 q 0.013701,0.1123456 0.052063,0.2082504 0.023976,0.055488 0.075354,0.1041252 0.037677,0.028771 0.1233062,0.047952 0.056173,0.00754 0.056173,0.011646 -0.1376919,0.044527 -0.179479,0.1274164 -0.034252,0.045897 -0.075354,0.2253763 -0.050007,0.3000449 -0.052063,0.4534926 h -0.00343 v -0.00206 q 0,-0.1233062 -0.048637,-0.4336267 Q 3.1682059,7.2281643 3.1318991,7.1548657 3.1113481,7.1096534 3.0565454,7.0658112 3.0147583,7.0356697 2.9428297,7.0116935 v -0.00206 Q 3.0538052,6.9904575 3.0949073,6.9692214 3.1654658,6.9329146 3.210678,6.8130336 3.249725,6.6835622 3.249725,6.6376649 Z M 3.7182884,6.8328996 H 4.051215 q 0.028772,0.014386 0.1513926,0.3349817 l 0.1349517,0.3233362 q 0.00754,0.00343 0.010961,0.00343 0.2500375,-0.5822791 0.281549,-0.659688 l 0.00343,-0.00206 h 0.3527926 q 0.00411,6.85e-4 0.00411,0.00411 v 0.051378 q 0,0.00343 -0.057543,0.010961 -0.048637,0.015756 -0.068504,0.054118 -0.00891,0.029456 -0.00891,0.066448 v 0.6062553 q 0,0.08974 0.055488,0.1109756 0.020551,0.01096 0.079464,0.018496 v 0.053433 q 0,0.00343 -0.00411,0.00343 H 4.532109 q -0.00411,0 -0.00411,-0.00343 v -0.052063 q 0,-0.00274 0.055488,-0.014386 0.066448,-0.025346 0.066448,-0.100015 0,-0.018496 0.00206,-0.018496 -0.00206,-0.024661 -0.00206,-0.036992 V 7.0582759 q 0,-0.014386 0.00206,-0.034937 -0.00343,-0.045897 -0.00754,-0.045897 -0.016441,0 -0.044527,0.082889 L 4.291662,7.8035931 h -0.00411 q -0.0048,0 -0.049322,0.00206 Q 4.0347748,7.3268142 4.0066884,7.2583108 3.9395554,7.2891368 3.8998231,7.3596958 3.8648861,7.4384748 3.8443351,7.5316394 3.7950121,7.8083932 3.7943281,7.94403 l -0.00411,0.00206 q -0.00137,-0.00411 -0.00137,-0.00548 0,-0.1096055 -0.044527,-0.3829341 Q 3.7182884,7.4384698 3.6867768,7.3672263 3.649785,7.2959827 3.5819666,7.2596759 3.5209986,7.2343297 3.5114081,7.2343297 v -0.00411 h 0.00206 q 0.056173,0 0.1479674,-0.040417 0.066448,-0.039047 0.1068653,-0.181534 0.018496,-0.062338 0.018496,-0.1034402 -0.018496,-0.00685 -0.071929,-0.014386 v -0.053433 q 6.851e-4,-0.00411 0.00343,-0.00411 z m 0.076039,0.076039 v 0.00137 q 0,0.042472 0.044527,0.1719436 0.043842,0.097275 0.1144007,0.1226211 0.028086,0.00891 0.033567,0.00891 Q 3.9073578,7.0151187 3.8813265,6.9788119 3.8251537,6.9144187 3.7943274,6.9089386 Z M 5.129459,6.8363248 h 0.6740736 q 0.1075504,0 0.1911246,0.065078 0.063023,0.061653 0.063023,0.1870144 v 0.015071 q 0,0.3096355 -0.4528076,0.3096355 H 5.4952672 v 0.00206 q -0.00343,0.1301565 -0.00343,0.1507075 0,0.1274164 0.044527,0.1650933 0.022606,0.016441 0.1185109,0.016441 l 0.00206,0.00343 v 0.063708 q 0,0.00343 -0.00411,0.00343 H 5.129459 q -0.00343,0 -0.00343,-0.00343 v -0.063708 q 0,-0.0048 0.068503,-0.00685 0.044527,-0.015756 0.063023,-0.054118 0.017126,-0.041787 0.017126,-0.089054 V 7.0925276 q 0,-0.1424871 -0.087684,-0.1705735 -0.027401,-0.00754 -0.055488,-0.013016 -0.00548,-0.0048 -0.00548,-0.00617 V 6.83975 q 6.85e-4,-0.00343 0.00343,-0.00343 z m 0.3699185,0.070558 v 0.4267763 q 0.021236,0.00206 0.031512,0.00206 0.1226211,0 0.2294865,-0.070558 0.069188,-0.064393 0.069188,-0.1520776 v -0.00411 q 0,-0.1246762 -0.1376918,-0.1890694 -0.041102,-0.013021 -0.087,-0.013021 z M 6.5399443,6.84112 h 0.2171558 q 0.010276,0 0.050008,0.1219361 0.067818,0.1815341 0.2486675,0.6843492 0.035622,0.071929 0.094535,0.094535 0.017811,0.00617 0.023976,0.00617 h 0.019866 q 0.00411,0 0.00411,0.00343 v 0.062338 q 0,0.00411 -0.00411,0.00411 H 6.7228484 q -0.00411,0 -0.00411,-0.00411 v -0.062338 q 6.851e-4,-0.00343 0.00411,-0.00343 h 0.078094 q 0.050008,0 0.050008,-0.032197 h 0.00206 q 0,-0.024661 -0.1123456,-0.3295015 Q 6.6043375,7.0295044 6.6043375,7.0178588 h -0.00206 q -0.069873,0.2061953 -0.1445422,0.439107 -0.073299,0.1931796 -0.078094,0.2726436 0.012331,0.018496 0.076039,0.018496 h 0.064393 q 0.00411,0 0.00411,0.00343 v 0.062338 q 0,0.00411 -0.00411,0.00411 H 6.1350891 q -0.00411,0 -0.00411,-0.00411 v -0.062338 q 6.85e-4,-0.00343 0.00411,-0.00343 h 0.050007 q 0.030827,0 0.071929,-0.054803 0.033567,-0.054118 0.072614,-0.1863293 0.1924946,-0.5678934 0.2048252,-0.6076254 0.00343,-0.019866 0.00343,-0.036307 l -0.00137,-0.019866 z m 0.070558,0.5233662 h 0.00206 q 0.060283,0.067133 0.1123456,0.086314 v 0.00411 q -0.042472,0.00548 -0.1102905,0.069873 0,0.00343 -0.00617,0.00617 -0.066448,-0.070559 -0.1082354,-0.082204 -0.00411,0 -0.00411,-0.00411 v -0.00206 Q 6.549535,7.4295632 6.6105027,7.3644852 Z M 7.8298639,6.8356397 h 0.014386 q 0.097275,0 0.2555178,0.033567 0.041787,0.00411 0.1185109,0.00411 l 0.00206,0.00343 v 0.2192109 q 0,0.00411 -0.00411,0.00411 h -0.053433 q -0.00206,0 -0.051377,-0.078779 -0.094535,-0.119881 -0.2240062,-0.119881 -0.1370069,0 -0.259628,0.09522 -0.1185109,0.1102905 -0.1185109,0.2794939 v 0.030142 q 0,0.2055103 0.1383769,0.3521076 0.094535,0.088369 0.2363368,0.088369 h 0.00754 q 0.1952347,0 0.3130606,-0.1671483 l 0.013701,-0.010961 h 0.065763 v 0.00206 q -0.069199,0.1308322 -0.215796,0.1965955 -0.1390619,0.050692 -0.2678484,0.050692 -0.1870143,0 -0.3486824,-0.1034402 Q 7.3606155,7.6446651 7.3325291,7.581642 7.2674508,7.4597059 7.2674508,7.3233841 v -0.00411 q 0,-0.2137307 0.1781089,-0.3671783 0.159613,-0.1164559 0.3843042,-0.1164561 z m 1.4844688,0.00411 q 0.00548,0 0.018496,0.1233061 0.00206,0.00685 0.018496,0.1294715 l -0.00343,0.00206 h -0.054803 q -0.00548,0 -0.023976,-0.075354 Q 9.2471994,6.9548357 9.2143177,6.9349697 9.1937667,6.919899 9.1471844,6.919899 H 8.9615401 v 0.6672233 q 0,0.1171408 0.047267,0.141117 0.024661,0.016441 0.054118,0.016441 h 0.069188 q 0.00411,6.851e-4 0.00411,0.00411 v 0.065763 q 0,0.00343 -0.00411,0.00343 H 8.5847713 q -0.00343,0 -0.00343,-0.00343 v -0.065763 q 6.851e-4,-0.00411 0.00343,-0.00411 h 0.069188 q 0.073984,0 0.095905,-0.082204 0.00548,-0.041787 0.00548,-0.075354 V 6.919899 H 8.5697005 q -0.084259,0 -0.1102905,0.069873 -0.017126,0.047952 -0.032197,0.1027552 l -0.00343,0.00206 H 8.36898 L 8.36555,7.0925272 Q 8.3957018,6.8705765 8.4011821,6.83975 Z"
         id="path12" />
      <path
         style="font-size:1.05221px;font-family:'Genshin Impact DRIP FONT';-inkscape-font-specification:'Genshin Impact DRIP FONT, Normal';text-align:center;text-anchor:middle"
         d="m 1.1544745,8.5476566 h 0.2990167 q 0.00308,5.138e-4 0.00308,0.00308 v 0.045726 q 0,0.00206 -0.019523,0.00668 -0.017982,0.013872 -0.017982,0.037506 v 0.00411 q 0,0.013358 0.1371777,0.3180263 l 0.045212,0.1053238 h 0.025175 q 0.062167,-0.2342812 0.062167,-0.2877137 0,-0.067305 -0.048295,-0.147967 -0.027744,-0.028771 -0.051377,-0.034937 -0.00154,0 -0.00154,-0.00103 V 8.550735 q 5.137e-4,-0.00308 0.00308,-0.00308 h 0.3031269 q 0.00257,5.138e-4 0.00257,0.00308 0,0.015927 0.00154,0.032882 0,0.015413 -0.00719,0.015413 -0.038533,0 -0.059084,0.047267 -0.00308,0.010276 -0.00308,0.01901 0,0.010789 0.071928,0.3015856 0.026716,0.090938 0.034937,0.1012136 h 0.017982 q 0.0036,-0.0036 0.026203,-0.070387 0.1227921,-0.3288156 0.1227921,-0.346284 v -0.00514 q 0,-0.03545 -0.041102,-0.048809 v -0.046753 q 0,-0.00308 0.00257,-0.00308 h 0.2060236 q 0.00308,5.138e-4 0.00308,0.00308 v 0.045726 q 0,0.00257 -0.00308,0.00257 h -0.00925 q -0.068846,0 -0.1094339,0.1258748 -0.2132164,0.5286738 -0.2270883,0.5589865 l -0.00257,0.00154 h -0.071928 q -0.00462,0 -0.022606,-0.07347 -0.017982,-0.059598 -0.094021,-0.3375498 H 1.731957 Q 1.6708178,9.1256528 1.6292021,9.2854366 h -0.0858 Q 1.5377502,9.2818402 1.501786,9.198095 1.3620394,8.8980507 1.26956,8.6915134 1.2546605,8.6596594 1.2222928,8.6267778 1.189925,8.599034 1.1755393,8.599034 h -0.021065 q -0.00257,0 -0.00257,-0.00257 V 8.550738 q 5.137e-4,-0.00308 0.00257,-0.00308 z m 1.548516,0.00103 q 0.1515635,0 0.2702454,0.1058376 0.1130303,0.111489 0.1130303,0.2599698 0,0.1392329 -0.1099477,0.2543183 -0.1227921,0.1166268 -0.2887412,0.1166268 -0.168518,0 -0.2882274,-0.1222783 -0.095048,-0.1058375 -0.095048,-0.2347949 v -0.00976 q 0,-0.1484808 0.1197094,-0.2625387 0.120737,-0.1073789 0.2789795,-0.1073789 z m -0.060625,0.060625 v -0.00154 q -0.088369,0.025175 -0.1361503,0.10481 -0.032881,0.05857 -0.034423,0.083745 -0.00462,0 -0.012331,0.056515 -0.00308,0.042129 -0.00411,0.042129 l 0.00154,0.00719 v 0.020551 l 0.00154,0.013872 h -0.00154 q 0.00925,0.1006998 0.067304,0.1906103 0.045212,0.05857 0.083745,0.078607 0.017468,0.010276 0.036992,0.017982 v 0.00103 l 0.00308,-0.00103 q 0.012331,0.00514 0.041102,0.010789 0.00154,0 0.00154,-0.00154 l 0.013358,0.00154 h 0.00154 q 0.00308,0 0.00565,-0.00154 l 0.00257,0.00154 q 0.040074,0 0.091966,-0.028771 0.076552,-0.045726 0.1140579,-0.1690318 0.00925,-0.045726 0.012331,-0.081176 l -0.00103,-0.00257 q 0,-0.00154 0.00103,-0.00411 l -0.00103,-0.00822 h 0.00103 l -0.00103,-0.00308 q 0,-0.00411 0.00103,-0.00411 l -0.00103,-0.00668 v -0.013872 l -0.00154,-0.013872 h 0.00154 l -0.00822,-0.045212 h 0.00103 q -0.029285,-0.1186819 -0.091966,-0.1782797 0,-0.00308 -0.024661,-0.023634 -0.06216,-0.046754 -0.1181615,-0.046754 h -0.00565 q -0.00154,0 -0.00154,-0.00154 l -0.00257,0.00154 h -0.00411 q -0.00154,0 -0.00154,-0.00154 -0.020037,0.00308 -0.03134,0.00565 z m 0.5415181,-0.060625 h 0.5060678 q 0.079635,-0.00103 0.147967,0.049322 0.045212,0.055488 0.045212,0.1084064 l 5.137e-4,0.036992 q 0,0.048809 -0.025175,0.1099478 -0.034937,0.070387 -0.136664,0.1063513 0.1120028,0.2460979 0.1448844,0.2604836 0.019523,0.012331 0.035964,0.012331 h 0.00719 q 0.00257,5.137e-4 0.00257,0.00257 v 0.033395 l -0.00103,0.00308 q -0.048295,0.00154 -0.069873,0.00154 h -0.034937 q -0.087855,0 -0.1099477,-0.026716 -0.026203,-0.00925 -0.1155993,-0.193693 -0.037505,-0.070901 -0.039047,-0.070901 h -0.083232 v 0.00154 q -0.00308,0.097617 -0.00308,0.1125166 0,0.096076 0.033395,0.1243334 0.017468,0.012331 0.089397,0.012331 l 0.00103,0.00257 v 0.047781 q 0,0.00257 -0.00257,0.00257 H 3.1838833 q -0.00257,0 -0.00257,-0.00257 v -0.047781 q 0,-0.0036 0.051377,-0.00514 0.033395,-0.011817 0.047781,-0.040588 0.012331,-0.03134 0.012331,-0.066791 V 8.7408358 q 0,-0.1068651 -0.065763,-0.1284436 -0.020551,-0.00514 -0.041616,-0.00976 l -0.00411,-0.00411 V 8.551253 q 5.138e-4,-0.00257 0.00257,-0.00257 z m 0.2774382,0.052919 v 0.3159713 q 0.013872,0.00154 0.021065,0.00154 h 0.019524 q 0.1104615,0 0.1793072,-0.073984 0.028258,-0.044185 0.028258,-0.088883 v -0.00308 q 0,-0.093507 -0.1032686,-0.1418018 -0.030826,-0.00976 -0.065249,-0.00976 z m 0.5055541,-0.052919 h 0.3426875 q 0.00308,5.138e-4 0.00308,0.00257 v 0.039047 q 0,0.00257 -0.043157,0.00873 -0.057543,0.020037 -0.057543,0.067818 v 0.4808928 q 0,0.047781 0.015413,0.057029 0.014386,0.00822 0.030826,0.00822 h 0.1561874 q 0.031854,-0.00257 0.06936,-0.033395 0.033909,-0.036992 0.051378,-0.075011 l 0.00308,-0.00154 h 0.052919 Q 4.5340825,9.2854366 4.4878428,9.2854366 H 3.9668756 q -0.00257,0 -0.00257,-0.00257 v -0.038019 q 0,-0.00206 0.041616,-0.010789 0.048809,-0.01901 0.048809,-0.068332 V 8.6699349 q 0,-0.065249 -0.084773,-0.076552 -0.00565,0 -0.00565,-0.00308 v -0.03905 q 5.138e-4,-0.00257 0.00257,-0.00257 z m 0.7131189,-5.137e-4 h 0.2563734 q 0.2311985,0 0.2800071,0.029285 0.1238196,0.045726 0.173142,0.1387191 0.034423,0.07347 0.034423,0.1037824 0.00976,0.051891 0.00976,0.083232 0,0.2558596 -0.1716007,0.332412 -0.094021,0.043157 -0.141288,0.043157 0,0.0036 -0.099672,0.00668 H 4.6799945 q -0.00257,0 -0.00257,-0.00257 v -0.044698 q 5.138e-4,-0.00257 0.00257,-0.00257 h 0.011303 q 0.04624,0 0.07347,-0.047267 0,-0.00976 0.00257,-0.00976 0.00154,-0.075525 0.00154,-0.1202233 V 8.7757724 q 0,-0.045212 -0.00154,-0.1191956 0,-0.020037 -0.031854,-0.044698 -0.021065,-0.013358 -0.044185,-0.013358 h -0.011303 q -0.00257,0 -0.00257,-0.00308 V 8.551253 q 5.138e-4,-0.00308 0.00257,-0.00308 z m 0.2358225,0.106865 v 0.5276464 q 0,0.055488 0.041616,0.055488 h 0.06936 q 0.053433,0 0.109434,-0.023634 0.0858,-0.044185 0.1325538,-0.1823899 0.013872,-0.053433 0.013872,-0.096076 v -0.030313 q 0,-0.00565 -0.00103,-0.015413 0.00103,-0.00206 0.00103,-0.00514 0,-0.077066 -0.054974,-0.1772522 Q 5.2148337,8.6822655 5.159346,8.6329431 5.1105375,8.5995478 5.03193,8.5995478 H 4.957433 q -0.041616,0 -0.041616,0.055488 z m 0.6031709,-0.10584 h 0.4814066 q 0.0858,0 0.1469395,0.071928 0.024661,0.038019 0.024661,0.075011 v 0.019523 q 0,0.098131 -0.09659,0.1382053 -0.022092,0.00822 -0.037506,0.00822 v 0.00154 q 0.040074,0 0.1037825,0.049836 0.071928,0.066791 0.071928,0.1464257 v 0.025175 q 0,0.090938 -0.066277,0.1489946 -0.067818,0.051377 -0.1602976,0.051377 h -0.468047 q -0.00257,0 -0.00257,-0.00257 v -0.048809 q 5.138e-4,-0.00257 0.00257,-0.00257 h 0.013872 q 0.047267,0 0.080149,-0.047267 0.00976,-0.014386 0.00976,-0.068846 V 8.7475148 q 0,-0.1063513 -0.014899,-0.1125166 -0.00771,-0.018496 -0.037506,-0.031854 h -0.051377 q -0.00257,0 -0.00257,-0.00257 v -0.048295 q 5.138e-4,-0.00308 0.00257,-0.00308 z m 0.2491806,0.1053238 v 0.1936929 h 0.020551 q 0.1382053,0 0.15927,-0.019523 0.03134,-0.015413 0.053946,-0.066277 0.00565,-0.02723 0.00565,-0.034423 0,-0.091452 -0.070387,-0.1217645 -0.025175,-0.00719 -0.052919,-0.00719 h -0.074497 q -0.041616,0 -0.041616,0.055488 z m 0,0.243529 v 0.2836035 q 0,0.055488 0.041616,0.055488 h 0.040074 q 0.1299849,0 0.1633803,-0.061139 0.026203,-0.039561 0.026203,-0.10481 0,-0.060112 -0.047267,-0.1176543 -0.05035,-0.055488 -0.1243334,-0.055488 z M 6.9729696,8.4156166 h 0.00308 v 0.00103 q 0,0.033909 0.028771,0.1078926 0.021579,0.039047 0.049836,0.049322 0.044698,0.015413 0.063194,0.015413 v 0.00257 q -0.06268,0.019523 -0.082718,0.058057 -0.019523,0.039047 -0.019523,0.071928 v 0.2106475 q 0,0.2481531 -0.1638941,0.3200815 -0.05446,0.027744 -0.1366639,0.027744 h -0.026203 q -0.09659,0 -0.1474533,-0.023634 Q 6.439158,9.2176184 6.4006249,9.1354145 6.3728811,9.0788993 6.3728811,9.0059434 V 8.7202848 q 0,-0.010789 0.00154,-0.028771 0,-0.064736 -0.037505,-0.0858 -0.021065,-0.00822 -0.053433,-0.014899 l -0.00154,-0.00308 v -0.040074 q 5.138e-4,-0.00257 0.00257,-0.00257 H 6.624118 q 0.00257,5.138e-4 0.00257,0.00257 v 0.041616 q 0,0.00257 -0.038533,0.00668 -0.037506,0.011817 -0.050864,0.034423 -0.011303,0.020551 -0.011303,0.058057 v 0.3134024 q 0,0.1453981 0.1186819,0.1916378 0.038533,0.010789 0.074497,0.010789 0.1474533,0 0.1998583,-0.13204 0.015413,-0.049836 0.015413,-0.07758 V 8.7341567 q 0,-0.099158 -0.080149,-0.1340951 l -0.02312,-0.00822 v -0.00257 q 0.030313,0 0.079635,-0.023634 0.03134,-0.02312 0.051377,-0.089397 0.00822,-0.034423 0.010789,-0.060625 z m 0.3036409,-0.015413 h 0.00257 v 0.00154 q 0.010275,0.084259 0.039047,0.1561874 0.017982,0.041616 0.056515,0.078094 0.028258,0.021578 0.092479,0.035964 0.04213,0.00565 0.04213,0.00873 Q 7.4060829,8.714114 7.3747426,8.776281 7.3490536,8.810704 7.3182276,8.9453128 7.2807216,9.170346 7.2791806,9.2854314 h -0.00257 v -0.00154 q 0,-0.092479 -0.036478,-0.3252192 -0.024661,-0.1155992 -0.051891,-0.1705731 -0.015413,-0.033909 -0.056515,-0.066791 -0.03134,-0.022606 -0.085287,-0.040588 v -0.00154 q 0.083232,-0.014386 0.1140579,-0.030313 0.052919,-0.02723 0.086828,-0.1171405 0.029285,-0.097103 0.029285,-0.1315263 z m 0.2425014,0.1484808 h 0.3426875 q 0.00308,5.138e-4 0.00308,0.00257 v 0.039047 q 0,0.00257 -0.043157,0.00873 -0.057543,0.020037 -0.057543,0.067818 v 0.4808928 q 0,0.047781 0.015413,0.057029 0.014386,0.00822 0.030826,0.00822 h 0.1561874 q 0.031854,-0.00257 0.06936,-0.033395 0.033909,-0.036992 0.051377,-0.075011 l 0.00308,-0.00154 h 0.052919 Q 8.0863188,9.2854366 8.0400791,9.2854366 H 7.5191119 q -0.00257,0 -0.00257,-0.00257 v -0.038019 q 0,-0.00206 0.041616,-0.010789 0.048809,-0.01901 0.048809,-0.068332 V 8.6699349 q 0,-0.065249 -0.084773,-0.076552 -0.00565,0 -0.00565,-0.00308 v -0.03905 q 5.138e-4,-0.00257 0.00257,-0.00257 z m 0.7131187,-5.14e-4 H 8.488604 q 0.2311985,0 0.2800071,0.029285 0.1238196,0.045726 0.1731419,0.1387191 0.034423,0.07347 0.034423,0.1037824 0.00976,0.051891 0.00976,0.083232 0,0.2558596 -0.1716006,0.332412 -0.094021,0.043157 -0.141288,0.043157 0,0.0036 -0.099672,0.00668 H 8.2322306 q -0.00257,0 -0.00257,-0.00257 v -0.044698 q 5.138e-4,-0.00257 0.00257,-0.00257 h 0.011303 q 0.04624,0 0.07347,-0.047267 0,-0.00976 0.00257,-0.00976 0.00154,-0.075525 0.00154,-0.1202233 V 8.7757724 q 0,-0.045212 -0.00154,-0.1191956 0,-0.020037 -0.031854,-0.044698 -0.021065,-0.013358 -0.044185,-0.013358 h -0.011303 q -0.00257,0 -0.00257,-0.00308 V 8.551253 q 5.138e-4,-0.00308 0.00257,-0.00308 z m 0.2358224,0.106865 v 0.5276464 q 0,0.055488 0.041616,0.055488 h 0.069359 q 0.053433,0 0.109434,-0.023634 0.0858,-0.044185 0.1325538,-0.1823899 0.013872,-0.053433 0.013872,-0.096076 v -0.030313 q 0,-0.00565 -0.00103,-0.015413 0.00103,-0.00206 0.00103,-0.00514 0,-0.077066 -0.054974,-0.1772522 -0.012844,-0.025689 -0.068332,-0.075011 -0.048809,-0.033395 -0.127416,-0.033395 h -0.074497 q -0.041616,0 -0.041616,0.055488 z M 9.2212464,8.4002033 h 0.00257 v 0.00154 q 0.010276,0.084259 0.039047,0.1561874 0.017982,0.041616 0.056515,0.078094 0.028258,0.021578 0.092479,0.035964 0.042129,0.00565 0.042129,0.00873 -0.1032686,0.033395 -0.1346089,0.095562 -0.025689,0.034423 -0.056515,0.1690318 -0.037505,0.2250332 -0.039047,0.3401186 h -0.00257 v -0.00154 q 0,-0.092479 -0.036478,-0.3252192 Q 9.1601075,8.8430769 9.1328775,8.788103 9.1174645,8.754194 9.0763625,8.721312 9.0450225,8.698706 8.9910765,8.680724 v -0.00154 q 0.083231,-0.014386 0.1140579,-0.030313 0.052919,-0.02723 0.086828,-0.1171405 0.029285,-0.097103 0.029285,-0.1315263 z m 0.3128884,0.1469395 h 0.173142 q 0.022092,0 0.060625,0.055488 0.03545,0.042643 0.3596422,0.4397908 V 8.7172021 q 0,-0.010789 0.0015,-0.026203 0,-0.059084 -0.03185,-0.080149 -0.01798,-0.011303 -0.06114,-0.019523 V 8.551253 q 5.14e-4,-0.00257 0.0031,-0.00257 h 0.256887 q 0.0031,5.138e-4 0.0031,0.00257 V 8.5903 q 0,0.00206 -0.04316,0.00822 -0.03648,0.011303 -0.05086,0.040074 -0.0072,0.022092 -0.0072,0.049836 v 0.5903268 q 0,0.00308 -0.0026,0.00308 h -0.05241 Q 10.0998,9.2314903 10.01811,9.1292492 L 9.6214765,8.6509252 q -0.017982,-0.02723 -0.044185,-0.040074 -0.00976,-0.00565 -0.045726,-0.016441 v -0.044185 q 5.137e-4,-0.00308 0.00257,-0.00308 z m 0.058057,0.1063513 q 0.00976,0.068332 0.031854,0.1289574 0.032882,0.072956 0.07347,0.090938 0.065249,0.026716 0.1037824,0.026716 v 0.00257 q -0.08169,0.022606 -0.116113,0.074497 -0.020037,0.024147 -0.045726,0.1135441 -0.022092,0.084259 -0.040074,0.2558597 -0.00565,0.064222 -0.00565,0.087342 l -0.00257,0.00103 q -0.00154,-0.00257 -0.00154,-0.00411 0,-0.08169 -0.033395,-0.2861724 -0.01901,-0.089397 -0.042643,-0.1423155 -0.028258,-0.053432 -0.079121,-0.080149 -0.045212,-0.019523 -0.052405,-0.019523 v -0.00257 h 0.00154 q 0.071415,-0.00873 0.1078927,-0.029285 0.051377,-0.030826 0.078608,-0.1217645 0.013872,-0.04624 0.021065,-0.095562 z m 1.1426342,-0.10481 q 0.02209,0.00154 0.0262,0.00154 l 0.0057,-0.00154 q 0.09556,0.00719 0.157215,0.024661 0.03699,0.012844 0.04829,0.012844 0.02107,0 0.08015,-0.016955 l 0.0015,0.00308 v 0.2039684 q 0,0.00308 -0.0031,0.00308 h -0.03699 q -0.03185,-0.058057 -0.04829,-0.0858 -0.06987,-0.084259 -0.162866,-0.084259 h -0.01079 q -0.1007,0 -0.192152,0.1006998 -0.06063,0.084773 -0.06063,0.1988307 v 0.022092 q 0,0.1299849 0.09505,0.241474 0.07296,0.066277 0.153618,0.066277 h 0.01336 q 0.04778,0 0.09402,-0.029285 V 9.0398525 q 0,-0.043157 -0.08426,-0.059084 l -0.0026,-0.00411 v -0.029285 q 5.14e-4,-0.00257 0.0026,-0.00257 h 0.321623 q 0.0026,5.138e-4 0.0026,0.00257 v 0.027744 q 0,0.00308 -0.03596,0.00976 -0.04932,0.013872 -0.04932,0.049322 -0.0041,0.015413 -0.0072,0.049836 0.0015,0.060112 0.0015,0.1006997 v 0.031854 q -0.0298,0.025175 -0.09659,0.044185 -0.08066,0.024661 -0.175197,0.024661 -0.233254,0 -0.342174,-0.1597838 -0.05241,-0.087855 -0.05241,-0.2193817 0,-0.1664629 0.158757,-0.2913101 0.05189,-0.034937 0.125361,-0.054974 0.05241,-0.011303 0.07296,-0.011303 z"
         id="path13" />
    </g>
  </g>
</svg>
